<?xml version="1.0" encoding="UTF-8"?>
<!DOCTYPE svg PUBLIC "-//W3C//DTD SVG 1.1//EN" "http://www.w3.org/Graphics/SVG/1.1/DTD/svg11.dtd">
<!-- Creator: CorelDRAW -->
<svg xmlns="http://www.w3.org/2000/svg" xml:space="preserve" width="2.00856in" height="0.477843in" version="1.1" style="shape-rendering:geometricPrecision; text-rendering:geometricPrecision; image-rendering:optimizeQuality; fill-rule:evenodd; clip-rule:evenodd"
viewBox="0 0 351.05 83.52"
 xmlns:xlink="http://www.w3.org/1999/xlink"
 xmlns:xodm="http://www.corel.com/coreldraw/odm/2003">
 <defs>
  <style type="text/css">
   <![CDATA[
    .str0 {stroke:#373435;stroke-width:1.21;stroke-miterlimit:2.61313}
    .fil4 {fill:none}
    .fil1 {fill:#FEFEFE}
    .fil2 {fill:#201E1E}
    .fil3 {fill:#201E1E;fill-rule:nonzero}
    .fil0 {fill:#201E1E;fill-rule:nonzero}
   ]]>
  </style>
 </defs>
 <g id="Layer_x0020_1">
  <metadata id="CorelCorpID_0Corel-Layer"/>
  <g id="_1756589046848">
   <path class="fil0" d="M331.97 25.13c-1.05,0.47 -2.2,0.76 -3.33,0.95 0.54,-0.09 1.33,-1.06 1.64,-1.46 0.48,-0.6 0.88,-1.28 1.11,-2.02 0.03,-0.06 0.05,-0.13 -0.01,-0.17 -0.07,-0.03 -0.12,-0.01 -0.18,0.02 -1.26,0.68 -2.57,1.17 -3.96,1.51 -0.12,0.03 -0.2,0 -0.27,-0.07 -0.11,-0.13 -0.22,-0.25 -0.35,-0.35 -0.58,-0.5 -1.21,-0.89 -1.92,-1.17 -0.93,-0.38 -1.94,-0.54 -2.94,-0.47 -0.97,0.06 -1.93,0.34 -2.79,0.79 -0.86,0.45 -1.64,1.08 -2.25,1.84 -0.64,0.78 -1.1,1.71 -1.34,2.69 -0.23,0.95 -0.21,1.89 -0.07,2.84 0.02,0.16 0.01,0.18 -0.14,0.16 -5.44,-0.81 -9.94,-2.75 -13.6,-6.92 -0.16,-0.18 -0.25,-0.18 -0.38,0.01 -1.6,2.4 -0.82,6.25 1.18,8.15 0.27,0.25 0.54,0.51 0.84,0.74 -0.11,0.02 -1.44,-0.12 -2.62,-0.74 -0.16,-0.1 -0.24,-0.04 -0.25,0.14 -0.02,0.26 0.01,0.5 0.04,0.78 0.31,2.43 1.99,4.68 4.3,5.56 0.27,0.12 0.58,0.22 0.87,0.27 -0.53,0.12 -1.07,0.2 -2.57,0.08 -0.19,-0.04 -0.26,0.06 -0.19,0.24 1.13,3.09 3.58,4.01 5.41,4.53 0.24,0.04 0.49,0.04 0.74,0.1 -0.01,0.02 -0.03,0.02 -0.04,0.04 -0.61,0.93 -2.71,1.61 -3.69,1.96 -1.78,0.62 -3.72,0.9 -5.61,0.72 -0.3,-0.04 -0.36,-0.04 -0.45,0 -0.08,0.05 -0.01,0.12 0.09,0.2 0.38,0.25 0.77,0.48 1.17,0.69 1.2,0.64 2.44,1.14 3.75,1.5 6.74,1.86 14.33,0.49 19.39,-4.53 3.97,-3.95 5.37,-9.39 5.37,-14.85 0,-0.21 0.25,-0.33 0.4,-0.44 1.03,-0.78 1.86,-1.71 2.63,-2.74 0.17,-0.23 0.16,-0.44 0.16,-0.53 0,-0.01 0,-0.03 0,-0.03 0,-0.09 0.01,-0.06 -0.12,0z"/>
   <path class="fil1" d="M310.84 83.49c2.8,0 0.13,0 0,0 0.37,0 -0.01,0 0,0z"/>
   <path class="fil1" d="M310.84 83.49c-0.04,0 -0.54,0 0,0 0,0 -0.09,0 0,0z"/>
   <path class="fil1" d="M311.95 83.52c0,-0.06 0.58,0 0,0 0,-0.03 0.07,0 0,0z"/>
   <path class="fil1" d="M323.62 56.47c-0.04,0.03 -0.09,0.03 -0.14,0 0.05,0 0.1,0 0.14,0z"/>
   <path class="fil2" d="M31.05 35.59l0 16.41c0,0.24 0.19,0.43 0.43,0.43l6.09 0c0.24,0 0.43,-0.19 0.43,-0.43l0 -16.67 4.42 0c0.22,0 0.41,-0.17 0.43,-0.39l0.42 -5.02c0.02,-0.25 -0.18,-0.46 -0.43,-0.46l-4.84 0 0 -3.56c0,-0.84 0.68,-1.51 1.51,-1.51l3.4 0c0.24,0 0.43,-0.19 0.43,-0.43l0 -5.02c0,-0.24 -0.19,-0.43 -0.43,-0.43l-5.75 0c-3.38,0 -6.11,2.74 -6.11,6.11l0 4.84 -3.05 0c-0.24,0 -0.43,0.19 -0.43,0.43l0 5.02c0,0.24 0.19,0.43 0.43,0.43l3.05 0 0 0.27z"/>
   <path class="fil3" d="M133.64 35.9l-7.52 4.12c-0.33,0.18 -0.62,-0.06 -0.62,-0.43l0 -8.46c0,-0.38 0.3,-0.61 0.63,-0.43l7.57 4.34c0.34,0.19 0.28,0.68 -0.06,0.86zm11.89 -4.86c0,-4.02 -3.25,-7.27 -7.27,-7.27l-18.85 0c-4.01,0 -7.27,3.25 -7.27,7.27l0 8.84c0,4.02 3.25,7.27 7.27,7.27l18.85 0c4.01,0 7.27,-3.25 7.27,-7.27l0 -8.84z"/>
   <g>
    <path class="fil3" d="M231.61 24.05c-1.15,0 -2.08,0.93 -2.08,2.08 0,1.15 0.93,2.08 2.08,2.08 1.15,0 2.08,-0.93 2.08,-2.08 0,-1.15 -0.93,-2.08 -2.08,-2.08z"/>
    <path class="fil3" d="M222.36 41.06c-3.09,0 -5.6,-2.51 -5.6,-5.6 0,-3.09 2.51,-5.6 5.6,-5.6 3.09,0 5.6,2.51 5.6,5.6 0,3.09 -2.51,5.6 -5.6,5.6zm0 -14.34c-4.82,0 -8.74,3.92 -8.74,8.74 0,4.82 3.92,8.74 8.74,8.74 4.82,0 8.74,-3.92 8.74,-8.74 0,-4.82 -3.92,-8.74 -8.74,-8.74z"/>
    <path class="fil3" d="M215.13 21.05c-4.04,0 -7.32,3.28 -7.32,7.32l0 14.17c0,4.04 3.28,7.32 7.32,7.32l14.17 0c4.04,0 7.32,-3.28 7.32,-7.32l0 -14.17c0,-4.04 -3.29,-7.32 -7.32,-7.32l-14.17 0zm14.17 32.16l-14.17 0c-5.88,0 -10.66,-4.78 -10.66,-10.66l0 -14.17c0,-5.88 4.78,-10.66 10.66,-10.66l14.17 0c5.88,0 10.66,4.78 10.66,10.66l0 14.17c0,5.88 -4.78,10.66 -10.66,10.66z"/>
   </g>
   <rect class="fil4 str0" x="0.61" y="0.61" width="69.7" height="69.7" rx="8.37" ry="8.37"/>
   <rect class="fil4 str0" x="93.99" y="0.61" width="69.7" height="69.7" rx="8.37" ry="8.37"/>
   <rect class="fil4 str0" x="187.36" y="0.61" width="69.7" height="69.7" rx="8.37" ry="8.37"/>
   <rect class="fil4 str0" x="280.74" y="0.61" width="69.7" height="69.7" rx="8.37" ry="8.37"/>
  </g>
 </g>
</svg>
